<?xml version="1.0" encoding="utf-8"?>
<!-- Generator: Adobe Illustrator 21.0.0, SVG Export Plug-In . SVG Version: 6.00 Build 0)  -->
<svg version="1.1" id="Layer_5" xmlns="http://www.w3.org/2000/svg" xmlns:xlink="http://www.w3.org/1999/xlink" x="0px" y="0px"
	 viewBox="0 0 100 100" enable-background="new 0 0 100 100" xml:space="preserve">
<g>
	<g>
		<path d="M36.3,35.2c0,0-16.5,1.8-27.4,3C7.8,38.4,7,39,6.6,40c-0.3,1,0,2.1,0.7,2.7c8.2,7.4,20.4,18.6,20.4,18.6
			c0,0-3.4,16.2-5.6,27c-0.2,1,0.2,2,1,2.6c0.8,0.6,1.9,0.6,2.8,0.1c9.6-5.5,24-13.7,24-13.7s14.4,8.2,24,13.7
			c0.9,0.5,2,0.5,2.8-0.2c0.9-0.6,1.2-1.7,1-2.6c-2.2-10.8-5.6-27-5.6-27s12.3-11.1,20.4-18.6c0.7-0.7,1.1-1.7,0.7-2.7
			c-0.3-1-1.2-1.7-2.2-1.8c-11-1.2-27.4-3.1-27.4-3.1S56.9,20.1,52.4,10C51.9,9.1,51,8.5,50,8.5c-1.1,0-2,0.6-2.4,1.5
			C43.1,20.1,36.3,35.2,36.3,35.2z"/>
	</g>
</g>
</svg>
