<?xml version="1.0" encoding="utf-8"?>
<!-- Generator: Adobe Illustrator 21.0.0, SVG Export Plug-In . SVG Version: 6.00 Build 0)  -->
<svg version="1.1" id="Layer_1" xmlns="http://www.w3.org/2000/svg" xmlns:xlink="http://www.w3.org/1999/xlink" x="0px" y="0px"
	 viewBox="0 0 50 50" enable-background="new 0 0 50 50" xml:space="preserve">
<path d="M27.8,25l16-16c0.8-0.8,0.8-2,0-2.8c-0.8-0.8-2-0.8-2.8,0l-16,15.9L8.9,6.1c-0.8-0.8-2-0.8-2.8,0
	c-0.8,0.8-0.8,2,0,2.8L22.3,25L6.1,41.2c-0.8,0.8-0.8,2,0,2.8c0.8,0.8,2,0.8,2.8,0L25,27.8l16.1,16.1c0.8,0.8,2,0.8,2.8,0
	c0.8-0.8,0.8-2,0-2.8L27.8,25z"/>
</svg>
