<?xml version="1.0" encoding="utf-8"?>
<!-- Generator: Adobe Illustrator 21.0.0, SVG Export Plug-In . SVG Version: 6.00 Build 0)  -->
<svg version="1.1" id="Layer_2" xmlns="http://www.w3.org/2000/svg" xmlns:xlink="http://www.w3.org/1999/xlink" x="0px" y="0px"
	 viewBox="0 0 205 42" style="enable-background:new 0 0 205 42;" xml:space="preserve">
<style type="text/css">
	.st0{fill:#FFFFFF;}
</style>
<g>
	<g>
		<path class="st0" d="M12.8,21.5l-4.7,4.7c-0.2,0.2-0.6,0.2-0.8,0l-4.7-4.7c-0.2-0.2-0.2-0.6,0-0.8l4.7-4.7c0.2-0.2,0.6-0.2,0.8,0
			l4.7,4.7C13,20.8,13,21.2,12.8,21.5z"/>
		<path class="st0" d="M19.1,15.2l-4.7,4.7c-0.2,0.2-0.6,0.2-0.8,0l-4.7-4.7c-0.2-0.2-0.2-0.6,0-0.8l4.7-4.7c0.2-0.2,0.6-0.2,0.8,0
			l4.7,4.7C19.3,14.5,19.3,14.9,19.1,15.2z"/>
		<path class="st0" d="M25.5,8.9l-4.7,4.7c-0.2,0.2-0.6,0.2-0.8,0l-4.7-4.7c-0.2-0.2-0.2-0.6,0-0.8l4.7-4.7c0.2-0.2,0.6-0.2,0.8,0
			l4.7,4.7C25.7,8.3,25.7,8.7,25.5,8.9z"/>
		<path class="st0" d="M19,27.7l-4.7,4.7c-0.2,0.2-0.6,0.2-0.8,0l-4.7-4.7c-0.2-0.2-0.2-0.6,0-0.8l4.7-4.7c0.2-0.2,0.6-0.2,0.8,0
			l4.7,4.7C19.3,27.1,19.3,27.5,19,27.7z"/>
		<path class="st0" d="M25.4,33.9l-4.7,4.7c-0.2,0.2-0.6,0.2-0.8,0l-4.7-4.7c-0.2-0.2-0.2-0.6,0-0.8l4.7-4.7c0.2-0.2,0.6-0.2,0.8,0
			l4.7,4.7C25.7,33.3,25.7,33.7,25.4,33.9z"/>
		<path class="st0" d="M25.3,21.4l-4.7,4.7c-0.2,0.2-0.6,0.2-0.8,0l-4.7-4.7c-0.2-0.2-0.2-0.6,0-0.8l4.7-4.7c0.2-0.2,0.6-0.2,0.8,0
			l4.7,4.7C25.6,20.8,25.6,21.2,25.3,21.4z"/>
	</g>
	<g>
		<path class="st0" d="M39.8,20.5l4.7-4.7c0.2-0.2,0.6-0.2,0.8,0l4.7,4.7c0.2,0.2,0.2,0.6,0,0.8l-4.7,4.7c-0.2,0.2-0.6,0.2-0.8,0
			l-4.7-4.7C39.6,21.2,39.6,20.8,39.8,20.5z"/>
		<path class="st0" d="M33.5,26.8l4.7-4.7c0.2-0.2,0.6-0.2,0.8,0l4.7,4.7c0.2,0.2,0.2,0.6,0,0.8l-4.7,4.7c-0.2,0.2-0.6,0.2-0.8,0
			l-4.7-4.7C33.3,27.5,33.3,27.1,33.5,26.8z"/>
		<path class="st0" d="M27.1,33.1l4.7-4.7c0.2-0.2,0.6-0.2,0.8,0l4.7,4.7c0.2,0.2,0.2,0.6,0,0.8l-4.7,4.7c-0.2,0.2-0.6,0.2-0.8,0
			l-4.7-4.7C26.9,33.7,26.9,33.3,27.1,33.1z"/>
		<path class="st0" d="M33.6,14.3l4.7-4.7c0.2-0.2,0.6-0.2,0.8,0l4.7,4.7c0.2,0.2,0.2,0.6,0,0.8l-4.7,4.7c-0.2,0.2-0.6,0.2-0.8,0
			l-4.7-4.7C33.3,14.9,33.3,14.5,33.6,14.3z"/>
		<path class="st0" d="M27.2,8.1l4.7-4.7c0.2-0.2,0.6-0.2,0.8,0l4.7,4.7c0.2,0.2,0.2,0.6,0,0.8l-4.7,4.7c-0.2,0.2-0.6,0.2-0.8,0
			l-4.7-4.7C26.9,8.7,26.9,8.3,27.2,8.1z"/>
		<path class="st0" d="M27.3,20.6l4.7-4.7c0.2-0.2,0.6-0.2,0.8,0l4.7,4.7c0.2,0.2,0.2,0.6,0,0.8l-4.7,4.7c-0.2,0.2-0.6,0.2-0.8,0
			l-4.7-4.7C27,21.2,27,20.8,27.3,20.6z"/>
	</g>
	<path class="st0" d="M58.2,15v5.6h5.4v1.8h-5.4v6.8H56V13.2h8.7V15H58.2z"/>
	<path class="st0" d="M79.2,29.1h-1.9c-0.4,0-0.7-0.2-0.9-0.5L72.3,23c-0.1-0.2-0.3-0.3-0.4-0.4c-0.1-0.1-0.4-0.1-0.7-0.1h-1.6v6.6
		h-2.1V13.2H72c1,0,1.9,0.1,2.6,0.3c0.7,0.2,1.3,0.5,1.8,0.9c0.5,0.4,0.8,0.8,1.1,1.4c0.2,0.5,0.3,1.2,0.3,1.8
		c0,0.6-0.1,1.1-0.3,1.6c-0.2,0.5-0.4,0.9-0.8,1.3c-0.3,0.4-0.7,0.7-1.2,1c-0.5,0.3-1,0.5-1.6,0.6c0.3,0.2,0.5,0.4,0.7,0.7
		L79.2,29.1z M71.9,20.9c0.6,0,1.2-0.1,1.6-0.2c0.5-0.2,0.9-0.4,1.2-0.6c0.3-0.3,0.6-0.6,0.7-1c0.2-0.4,0.2-0.8,0.2-1.3
		c0-0.9-0.3-1.7-0.9-2.1c-0.6-0.5-1.6-0.7-2.8-0.7h-2.4v6H71.9z"/>
	<path class="st0" d="M94.3,29.1h-1.7c-0.2,0-0.3,0-0.5-0.1c-0.1-0.1-0.2-0.2-0.3-0.4l-1.5-3.8h-7.1l-1.5,3.8c0,0.1-0.1,0.3-0.3,0.4
		c-0.1,0.1-0.3,0.2-0.5,0.2h-1.7l6.4-15.9H88L94.3,29.1z M89.8,23.2l-2.5-6.5c-0.1-0.2-0.2-0.4-0.2-0.7c-0.1-0.3-0.2-0.5-0.2-0.8
		c-0.2,0.6-0.3,1.1-0.5,1.5l-2.5,6.5H89.8z"/>
	<path class="st0" d="M138.4,27.4c0.7,0,1.2-0.1,1.8-0.3c0.5-0.2,1-0.5,1.3-0.9c0.4-0.4,0.6-0.9,0.8-1.4c0.2-0.6,0.3-1.2,0.3-1.8
		v-9.7h2.1v9.7c0,0.9-0.1,1.8-0.4,2.6c-0.3,0.8-0.7,1.5-1.3,2c-0.5,0.6-1.2,1-2,1.3c-0.8,0.3-1.7,0.5-2.6,0.5c-1,0-1.9-0.2-2.6-0.5
		c-0.8-0.3-1.5-0.8-2-1.3c-0.5-0.6-1-1.3-1.3-2c-0.3-0.8-0.4-1.6-0.4-2.6v-9.7h2.1v9.7c0,0.7,0.1,1.3,0.3,1.8c0.2,0.6,0.5,1,0.8,1.4
		c0.4,0.4,0.8,0.7,1.3,0.9C137.2,27.3,137.8,27.4,138.4,27.4z"/>
	<path class="st0" d="M103.6,15.1c-0.7,0-1.2,0.1-1.8,0.3c-0.5,0.2-1,0.5-1.3,0.9c-0.4,0.4-0.6,0.9-0.8,1.4
		c-0.2,0.6-0.3,1.2-0.3,1.8v9.7h-2.1v-9.7c0-0.9,0.1-1.8,0.4-2.6c0.3-0.8,0.7-1.5,1.3-2c0.5-0.6,1.2-1,2-1.3
		c0.8-0.3,1.7-0.5,2.6-0.5c1,0,1.9,0.2,2.6,0.5c0.8,0.3,1.5,0.8,2,1.3c0.5,0.6,1,1.3,1.3,2c0.3,0.8,0.4,1.6,0.4,2.6v9.7h-2.1v-9.7
		c0-0.7-0.1-1.3-0.3-1.8c-0.2-0.6-0.5-1-0.8-1.4c-0.4-0.4-0.8-0.7-1.3-0.9C104.9,15.2,104.3,15.1,103.6,15.1z"/>
	<path class="st0" d="M150.8,29.1h-2.2V13.2h2.2V29.1z"/>
	<path class="st0" d="M166,25.8c0.1,0,0.2,0,0.3,0.1l0.9,0.9c-0.7,0.8-1.4,1.3-2.4,1.8c-0.9,0.4-2.1,0.6-3.4,0.6
		c-1.1,0-2.2-0.2-3.1-0.6c-0.9-0.4-1.7-1-2.4-1.7c-0.7-0.7-1.2-1.6-1.5-2.6c-0.4-1-0.5-2.1-0.5-3.3c0-1.2,0.2-2.3,0.6-3.3
		c0.4-1,0.9-1.9,1.6-2.6c0.7-0.7,1.5-1.3,2.5-1.7c1-0.4,2-0.6,3.2-0.6c1.1,0,2.1,0.2,3,0.5c0.9,0.4,1.6,0.9,2.3,1.5l-0.7,1
		c0,0.1-0.1,0.1-0.2,0.2c-0.1,0-0.2,0.1-0.3,0.1c-0.1,0-0.3-0.1-0.5-0.2c-0.2-0.1-0.4-0.3-0.8-0.5c-0.3-0.2-0.7-0.3-1.2-0.5
		c-0.5-0.1-1-0.2-1.7-0.2c-0.8,0-1.6,0.1-2.3,0.4c-0.7,0.3-1.3,0.7-1.8,1.2c-0.5,0.5-0.9,1.2-1.1,2c-0.3,0.8-0.4,1.7-0.4,2.6
		c0,1,0.1,1.9,0.4,2.7c0.3,0.8,0.7,1.4,1.2,2c0.5,0.5,1.1,0.9,1.7,1.2c0.7,0.3,1.4,0.4,2.2,0.4c0.5,0,0.9,0,1.3-0.1
		c0.4-0.1,0.7-0.1,1.1-0.3c0.3-0.1,0.6-0.3,0.9-0.4c0.3-0.2,0.6-0.4,0.8-0.6C165.7,25.9,165.9,25.8,166,25.8z"/>
	<path class="st0" d="M171.8,29.1h-2.2V13.2h2.2V29.1z"/>
	<path class="st0" d="M188.8,29.1h-1.7c-0.2,0-0.3,0-0.5-0.1c-0.1-0.1-0.2-0.2-0.3-0.4l-1.5-3.8h-7.1l-1.5,3.8
		c0,0.1-0.1,0.3-0.3,0.4c-0.1,0.1-0.3,0.2-0.5,0.2h-1.7l6.4-15.9h2.2L188.8,29.1z M184.3,23.2l-2.5-6.5c-0.1-0.2-0.2-0.4-0.2-0.7
		c-0.1-0.3-0.2-0.5-0.2-0.8c-0.2,0.6-0.3,1.1-0.5,1.5l-2.5,6.5H184.3z"/>
	<path class="st0" d="M202.7,29.1h-1.9c-0.4,0-0.7-0.2-0.9-0.5l-4.1-5.7c-0.1-0.2-0.3-0.3-0.4-0.4c-0.1-0.1-0.4-0.1-0.7-0.1h-1.6
		v6.6h-2.1V13.2h4.5c1,0,1.9,0.1,2.6,0.3c0.7,0.2,1.3,0.5,1.8,0.9c0.5,0.4,0.8,0.8,1.1,1.4c0.2,0.5,0.3,1.2,0.3,1.8
		c0,0.6-0.1,1.1-0.3,1.6c-0.2,0.5-0.4,0.9-0.8,1.3c-0.3,0.4-0.7,0.7-1.2,1c-0.5,0.3-1,0.5-1.6,0.6c0.3,0.2,0.5,0.4,0.7,0.7
		L202.7,29.1z M195.3,20.9c0.6,0,1.2-0.1,1.6-0.2c0.5-0.2,0.9-0.4,1.2-0.6s0.6-0.6,0.7-1c0.2-0.4,0.2-0.8,0.2-1.3
		c0-0.9-0.3-1.7-0.9-2.1c-0.6-0.5-1.6-0.7-2.8-0.7h-2.4v6H195.3z"/>
	<path class="st0" d="M128.6,17.9c-0.4-1-0.9-1.9-1.6-2.6c-0.7-0.7-1.5-1.3-2.5-1.7c-1-0.4-2-0.6-3.2-0.6c-1.2,0-2.2,0.2-3.2,0.6
		c-1,0.4-1.8,1-2.5,1.7c-0.7,0.7-1.2,1.6-1.6,2.6c-0.4,1-0.6,2.1-0.6,3.3c0,1.2,0.2,2.3,0.6,3.3c0.4,1,0.9,1.9,1.6,2.6
		c0.7,0.7,1.5,1.3,2.5,1.7c0.8,0.3,1.6,0.5,2.5,0.6v-1.9c-0.6-0.1-1.1-0.2-1.7-0.4c-0.7-0.3-1.3-0.7-1.8-1.2c-0.5-0.5-0.9-1.2-1.1-2
		c-0.3-0.8-0.4-1.6-0.4-2.6c0-1,0.1-1.9,0.4-2.6c0.3-0.8,0.6-1.4,1.1-2c0.5-0.5,1.1-0.9,1.8-1.2c0.7-0.3,1.5-0.4,2.3-0.4
		c0.9,0,1.6,0.1,2.3,0.4c0.7,0.3,1.3,0.7,1.8,1.2c0.5,0.5,0.9,1.2,1.1,2c0.3,0.8,0.4,1.7,0.4,2.6c0,1-0.1,1.9-0.4,2.6
		c-0.2,0.4-0.3,0.8-0.6,1.2l1.5,1.4c0.3-0.4,0.5-0.8,0.8-1.2c0.3-0.6,0.5-1.2,0.7-1.9c0.2-0.7,0.2-1.4,0.2-2.1
		C129.2,20,129,18.9,128.6,17.9z"/>
	
		<rect x="123.5" y="23.8" transform="matrix(0.7071 -0.7071 0.7071 0.7071 16.9949 95.8595)" class="st0" width="1.5" height="7.3"/>
</g>
</svg>
