<?xml version="1.0" encoding="utf-8"?>
<!-- Generator: Adobe Illustrator 21.0.0, SVG Export Plug-In . SVG Version: 6.00 Build 0)  -->
<svg version="1.1" id="Layer_7" xmlns="http://www.w3.org/2000/svg" xmlns:xlink="http://www.w3.org/1999/xlink" x="0px" y="0px"
	 viewBox="0 0 100 100" enable-background="new 0 0 100 100" xml:space="preserve">
<g>
	<path d="M42.8,61.7c0.6-0.6,22.1-20.3,22.7-20.9c0.6-0.6,3-0.6,3,0.6c0,1.2,0,11.9,0,11.9h25.6c0,0,4.2,1.2,4.2,10.7
		s-4.8,9.5-4.8,9.5h-25c0,0,0,11.9,0,13.1s-2.7,0.9-3.6,0C64,85.9,43.4,66.5,42.8,65.9C42.2,65.3,42.2,62.3,42.8,61.7z"/>
	<path d="M57.2,37.9c-0.6,0.6-21.2,20-22.1,20.9c-0.9,0.9-3.6,1.2-3.6,0c0-1.2,0-13.1,0-13.1h-25c0,0-4.8,0-4.8-9.5
		s4.2-10.7,4.2-10.7h25.6c0,0,0-10.7,0-11.9s2.4-1.2,3-0.6c0.6,0.6,22.1,20.3,22.7,20.9C57.8,34.3,57.8,37.3,57.2,37.9z"/>
</g>
</svg>
