<?xml version="1.0" encoding="utf-8"?>
<!-- Generator: Adobe Illustrator 21.0.0, SVG Export Plug-In . SVG Version: 6.00 Build 0)  -->
<svg version="1.1" id="Layer_1" xmlns="http://www.w3.org/2000/svg" xmlns:xlink="http://www.w3.org/1999/xlink" x="0px" y="0px"
	 viewBox="0 0 100 100" enable-background="new 0 0 100 100" xml:space="preserve">
<path d="M71,15.7H29c-7.3,0-13.3,5.9-13.3,13.3v14V71c0,7.3,5.9,13.3,13.3,13.3H71c7.3,0,13.3-5.9,13.3-13.3V43V29
	C84.3,21.7,78.3,15.7,71,15.7z M74.8,23.6l1.5,0v1.5v10.1l-11.6,0l0-11.6L74.8,23.6z M40.2,43c2.2-3,5.8-5,9.8-5s7.6,2,9.8,5
	c1.4,2,2.3,4.4,2.3,7c0,6.7-5.4,12.1-12.1,12.1c-6.7,0-12.1-5.4-12.1-12.1C37.9,47.4,38.8,44.9,40.2,43z M77.6,71
	c0,3.6-2.9,6.6-6.6,6.6H29c-3.6,0-6.6-2.9-6.6-6.6V43h10.2c-0.9,2.2-1.4,4.5-1.4,7c0,10.3,8.4,18.8,18.8,18.8
	c10.3,0,18.8-8.4,18.8-18.8c0-2.5-0.5-4.9-1.4-7h10.2V71z"/>
</svg>
