<?xml version="1.0" encoding="utf-8"?>
<!-- Generator: Adobe Illustrator 21.0.0, SVG Export Plug-In . SVG Version: 6.00 Build 0)  -->
<svg version="1.1" id="twitter" xmlns="http://www.w3.org/2000/svg" xmlns:xlink="http://www.w3.org/1999/xlink" x="0px" y="0px"
	 viewBox="0 0 100 100" style="enable-background:new 0 0 100 100;" xml:space="preserve">
<style type="text/css">
	.st0{fill:#55ACEE;}
</style>
<path class="st0" d="M96.2,21.3c-3.4,1.5-7.1,2.5-10.9,3c3.9-2.3,6.9-6.1,8.3-10.5C90,16,86,17.6,81.6,18.4c-3.5-3.7-8.4-6-13.9-6
	c-10.5,0-19,8.5-19,19c0,1.5,0.2,2.9,0.5,4.3c-15.8-0.8-29.8-8.3-39.1-19.8c-1.6,2.8-2.6,6.1-2.6,9.5c0,6.6,3.4,12.4,8.4,15.8
	c-3.1-0.1-6-1-8.6-2.4c0,0.1,0,0.2,0,0.2c0,9.2,6.5,16.9,15.2,18.6c-1.6,0.4-3.3,0.7-5,0.7c-1.2,0-2.4-0.1-3.6-0.3
	c2.4,7.5,9.4,13,17.7,13.2c-6.5,5.1-14.7,8.1-23.6,8.1c-1.5,0-3-0.1-4.5-0.3c8.4,5.4,18.4,8.5,29.1,8.5c34.9,0,54-28.9,54-54
	c0-0.8,0-1.6-0.1-2.5C90.5,28.5,93.7,25.1,96.2,21.3z"/>
</svg>
