<?xml version="1.0" encoding="utf-8"?>
<!-- Generator: Adobe Illustrator 21.0.0, SVG Export Plug-In . SVG Version: 6.00 Build 0)  -->
<svg version="1.1" id="Layer_1" xmlns="http://www.w3.org/2000/svg" xmlns:xlink="http://www.w3.org/1999/xlink" x="0px" y="0px"
	 viewBox="0 0 100 100" enable-background="new 0 0 100 100" xml:space="preserve">
<g>
	<path d="M89.5,47.6c-0.1,10.3-2.7,18.3-8.2,25.3c-5.9,7.5-13.6,12.3-23,14.2C51,88.6,44,87.9,37,85.4
		c-1.5-0.6-3-1.2-4.5-2c-0.4-0.2-0.8-0.3-1.3-0.1c-6.6,2.1-13.1,4.2-19.7,6.3c-0.3,0.1-0.7,0.4-0.9,0.2c-0.3-0.3,0.1-0.6,0.2-1
		c1.3-3.9,2.6-7.8,4-11.7c0.8-2.4,1.6-4.7,2.4-7.1c0.2-0.6,0.1-1.1-0.2-1.7c-1.7-2.9-2.9-5.9-3.8-9.1c-1.6-6-1.8-12.1-0.5-18.1
		c1.4-6.6,4.3-12.5,8.8-17.6c5.4-6.2,12.1-10.2,20.1-12.2c5.1-1.2,10.2-1.4,15.4-0.6c6.7,1.1,12.8,3.8,18.1,8.1
		c5.5,4.5,9.5,10.1,12.1,16.8C88.4,39.1,89.6,45.1,89.5,47.6z M20.5,80c4-1.3,7.9-2.5,11.7-3.8c0.5-0.2,0.9-0.1,1.3,0.2
		c1.5,1,3,1.8,4.7,2.4c5.3,2.2,10.7,3,16.4,2.3c6.9-0.9,13-3.7,18.2-8.5c6.5-6.1,9.9-13.6,10.2-22.4c0.3-8.7-2.5-16.3-8.3-22.8
		c-5.5-6.1-12.5-9.6-20.7-10.5c-7.1-0.8-13.8,0.8-19.9,4.5c-5.3,3.2-9.3,7.5-12.1,13c-3.1,6-4.1,12.4-3.3,19.1
		c0.7,5.1,2.5,9.7,5.4,13.9c0.3,0.5,0.4,0.9,0.2,1.4c-0.6,1.7-1.1,3.3-1.7,5C21.9,75.7,21.2,77.7,20.5,80z"/>
	<path d="M31.2,40c0.1-3.9,1.4-6.7,4-9c0.8-0.7,1.8-1.1,3-0.9c0.5,0.1,1,0.1,1.5,0.1c0.9,0,1.5,0.4,1.8,1.2
		c1.1,2.8,2.1,5.6,3.2,8.5c0.4,1-0.3,1.7-0.8,2.4c-0.6,0.8-1.3,1.6-2,2.3c-0.7,0.7-0.8,1.2-0.3,2.1c2.9,5.3,7.1,9.4,12.6,12
		c0.2,0.1,0.4,0.2,0.6,0.3c0.7,0.3,1.4,0.3,2-0.4c1-1.2,2.2-2.3,3.1-3.6c0.6-0.8,1.1-1,2-0.6c2.9,1.2,5.5,2.8,8.3,4.3
		c0.5,0.3,0.7,0.7,0.7,1.3c-0.1,4.8-2.9,7.3-7.7,8.4c-2.3,0.5-4.5,0-6.6-0.8c-4.5-1.6-8.8-3.5-12.4-6.7c-2.9-2.6-5.4-5.4-7.6-8.6
		c-1.7-2.5-3.4-4.9-4.3-7.7C31.6,42.8,31.2,41.2,31.2,40z"/>
</g>
</svg>
