<?xml version="1.0" encoding="utf-8"?>
<!-- Generator: Adobe Illustrator 21.0.0, SVG Export Plug-In . SVG Version: 6.00 Build 0)  -->
<svg version="1.1" id="Layer_1" xmlns="http://www.w3.org/2000/svg" xmlns:xlink="http://www.w3.org/1999/xlink" x="0px" y="0px"
	 viewBox="0 0 100 100" enable-background="new 0 0 100 100" xml:space="preserve">
<g>
	<path d="M74.9,48.2H25.1c-7.9,0-14.3,6.4-14.3,14.3V74c0,7.9,6.4,14.3,14.3,14.3h49.7c7.9,0,14.3-6.4,14.3-14.3V62.5
		C89.2,54.6,82.8,48.2,74.9,48.2z M35.6,57.1H31v23h-4.5v-23h-4.6v-3.9h13.7C35.6,53.2,35.6,57.1,35.6,57.1z M48.6,80.1h-4v-2.2
		c-0.7,0.8-1.5,1.4-2.3,1.8c-0.8,0.4-1.6,0.6-2.3,0.6c-0.9,0-1.6-0.3-2.1-0.9c-0.5-0.6-0.7-1.5-0.7-2.7V60.3h4v15.2
		c0,0.5,0.1,0.8,0.2,1c0.2,0.2,0.4,0.3,0.8,0.3c0.3,0,0.7-0.1,1.1-0.4c0.4-0.3,0.9-0.6,1.2-1.1V60.3h4V80.1z M63,76
		c0,1.4-0.3,2.5-0.9,3.2c-0.6,0.8-1.5,1.1-2.7,1.1c-0.8,0-1.5-0.1-2.1-0.4c-0.6-0.3-1.2-0.7-1.7-1.3v1.5h-4V53.2h4v8.7
		c0.5-0.6,1.1-1.1,1.7-1.4c0.6-0.3,1.2-0.5,1.8-0.5c1.3,0,2.2,0.4,2.9,1.3c0.7,0.8,1,2.1,1,3.7L63,76L63,76z M76.8,70.7h-7.6v3.7
		c0,1,0.1,1.8,0.4,2.2c0.3,0.4,0.7,0.6,1.3,0.6c0.7,0,1.1-0.2,1.4-0.5c0.3-0.3,0.4-1.1,0.4-2.3v-0.9h4.1v1c0,2-0.5,3.6-1.5,4.6
		c-1,1-2.5,1.5-4.4,1.5c-1.8,0-3.2-0.5-4.2-1.6c-1-1.1-1.5-2.6-1.5-4.5v-8.9c0-1.7,0.6-3.1,1.7-4.2c1.1-1.1,2.6-1.6,4.3-1.6
		c1.8,0,3.2,0.5,4.2,1.5c1,1,1.5,2.4,1.5,4.3V70.7z"/>
	<path d="M71,63.3c-0.6,0-1.1,0.2-1.4,0.5c-0.3,0.3-0.4,0.9-0.4,1.8v2h3.5v-2c0-0.8-0.1-1.4-0.4-1.8C72,63.4,71.6,63.3,71,63.3z"/>
	<path d="M57.3,63.2c-0.3,0-0.6,0.1-0.8,0.2c-0.3,0.1-0.5,0.3-0.8,0.6v12.4c0.3,0.3,0.6,0.6,0.9,0.7c0.3,0.1,0.6,0.2,1,0.2
		c0.5,0,0.8-0.1,1.1-0.4c0.2-0.3,0.3-0.7,0.3-1.4V65.2c0-0.7-0.1-1.2-0.4-1.5C58.2,63.4,57.8,63.2,57.3,63.2z"/>
	<polygon points="31.6,41.3 36.7,41.3 36.7,29 42.5,11.7 37.4,11.7 34.3,23.5 34,23.5 30.7,11.7 25.7,11.7 31.6,29.6 	"/>
	<path d="M49.3,41.8c2,0,3.6-0.5,4.8-1.6c1.2-1.1,1.7-2.5,1.7-4.4V24.6c0-1.7-0.6-3-1.8-4.1c-1.2-1.1-2.7-1.6-4.5-1.6
		c-2,0-3.6,0.5-4.8,1.5c-1.2,1-1.8,2.3-1.8,4v11.3c0,1.9,0.6,3.3,1.8,4.4C45.8,41.3,47.4,41.8,49.3,41.8z M47.5,24.3
		c0-0.5,0.2-0.9,0.5-1.2c0.3-0.3,0.8-0.4,1.3-0.4c0.6,0,1.1,0.1,1.4,0.4c0.4,0.3,0.5,0.7,0.5,1.2v11.9c0,0.6-0.2,1-0.5,1.4
		c-0.4,0.3-0.8,0.5-1.4,0.5c-0.6,0-1-0.2-1.4-0.5c-0.3-0.3-0.5-0.8-0.5-1.4L47.5,24.3L47.5,24.3z"/>
	<path d="M62.6,41.6c0.8,0,1.7-0.2,2.6-0.7c0.9-0.5,1.8-1.1,2.6-2v2.4h4.5V19.4h-4.5V36c-0.4,0.5-0.9,0.9-1.4,1.2
		c-0.5,0.3-0.9,0.5-1.2,0.5c-0.4,0-0.7-0.1-0.9-0.4c-0.2-0.2-0.3-0.6-0.3-1.1V19.4h-4.5v18.3c0,1.3,0.3,2.3,0.8,2.9
		C60.8,41.3,61.5,41.6,62.6,41.6z"/>
</g>
</svg>
